<svg width="1440" height="1614" viewBox="0 0 1440 1614" fill="none" xmlns="http://www.w3.org/2000/svg">
<path d="M284.37 207.078C271.868 312.059 212.688 437.424 245.692 536.595C376.049 928.302 1144.29 810.869 1574.83 929.674L1905.37 1528.31C1802.86 1589.81 1276.9 1649.48 925.264 1588.41C485.717 1512.08 -121.848 1200.74 -189.855 929.674C-244.261 712.819 25.7783 395.451 154.792 237.578C189.792 194.749 151.37 122.988 53.3697 118.988C-44.6303 114.988 -64.797 95.321 -62.6303 85.9877L-43.6303 25.4877C-43.6303 25.4877 184.37 8.97392 245.692 85.987C277.257 125.63 286.832 156.463 284.37 207.078Z" fill="url(#paint0_linear_182_4)"/>
<path d="M1219 183.078C1231.5 288.059 1290.68 413.424 1257.68 512.595C1127.32 904.302 359.082 786.869 -71.4642 905.674L-402 1504.31C-299.489 1565.81 226.468 1625.48 578.105 1564.41C1017.65 1488.08 1625.22 1176.74 1693.22 905.674C1747.63 688.819 1477.59 371.451 1348.58 213.578C1313.58 170.749 1352 98.9877 1450 94.9877C1548 90.9877 1568.17 71.321 1566 61.9877L1547 1.48767C1547 1.48767 1319 -15.0261 1257.68 61.987C1226.11 101.63 1216.54 132.463 1219 183.078Z" fill="url(#paint1_linear_182_4)"/>
<defs>
<linearGradient id="paint0_linear_182_4" x1="853.869" y1="184.987" x2="853.869" y2="1613.99" gradientUnits="userSpaceOnUse">
<stop stop-color="#5B1146"/>
<stop offset="0.5" stop-color="#9B3E20"/>
<stop offset="1" stop-color="#E06130"/>
</linearGradient>
<linearGradient id="paint1_linear_182_4" x1="649.501" y1="160.987" x2="649.501" y2="1589.99" gradientUnits="userSpaceOnUse">
<stop stop-color="#963424"/>
<stop offset="1" stop-color="#F87D3E"/>
</linearGradient>
</defs>
</svg>
