<svg width="1440" height="2204" viewBox="0 0 1440 2204" fill="none" xmlns="http://www.w3.org/2000/svg">
<g clip-path="url(#clip0_58_339)">
<path d="M548 468C318.8 445.2 81.1667 146.5 -9 0L-384 1142C-268.333 1267 75.1 1492.8 523.5 1396C1084 1275 899 1464.5 1262 1436.5C1552.4 1414.1 1625 1230.83 1625 1142L1601 637.5C1514.83 538 1290.9 338.2 1084.5 335C826.5 331 834.5 496.5 548 468Z" fill="url(#paint0_linear_58_339)"/>
<path d="M464.073 737.908C235.701 767.888 -63.6958 531.134 -184.848 409.009L-290.004 1606.39C-148.916 1701.78 236.906 1843.46 651.492 1647.12C1169.73 1401.69 1032.73 1628.33 1379.82 1518.42C1657.49 1430.49 1686.46 1235.51 1666.24 1149.01L1528.01 663.223C1421.45 585.953 1157.91 442.382 956.204 486.257C704.069 541.1 749.538 700.433 464.073 737.908Z" fill="url(#paint1_linear_58_339)"/>
<path d="M433.119 1086.23C230.936 1195.54 -90.2672 1134.88 -225.596 1090.89L-77.9963 2015.7C70.0759 2032.32 450.766 1989.76 788.948 1686.46C1211.67 1307.35 1132.82 1527.08 1427.02 1313.41C1662.39 1142.47 1649.16 987.357 1613.12 931.166L1388.26 625.001C1275.37 608.579 1005.82 603.083 830.776 712.481C611.976 849.229 685.847 949.597 433.119 1086.23Z" fill="url(#paint2_linear_58_339)"/>
</g>
<defs>
<linearGradient id="paint0_linear_58_339" x1="620.5" y1="0" x2="620.5" y2="1439.36" gradientUnits="userSpaceOnUse">
<stop stop-color="#882667"/>
<stop offset="1" stop-color="#572458"/>
</linearGradient>
<linearGradient id="paint1_linear_58_339" x1="428.121" y1="265.692" x2="755.817" y2="1667.26" gradientUnits="userSpaceOnUse">
<stop stop-color="#882667"/>
<stop offset="1" stop-color="#511C72"/>
</linearGradient>
<linearGradient id="paint2_linear_58_339" x1="304.298" y1="751.062" x2="888.19" y2="1661.53" gradientUnits="userSpaceOnUse">
<stop stop-color="#882667"/>
<stop offset="1" stop-color="#681F95"/>
</linearGradient>
<clipPath id="clip0_58_339">
<rect width="2283.94" height="2203.79" fill="white" transform="translate(-550)"/>
</clipPath>
</defs>
</svg>
