<svg width="1440" height="819" viewBox="0 0 1440 819" fill="none" xmlns="http://www.w3.org/2000/svg">
<path d="M115 108.5L383 79.5L574.5 0L903 28.5L1177 79.5L1279.5 108.5L1433 199.5L1522.5 374C1441.5 412.5 1279.5 489.9 1279.5 491.5C1279.5 493.1 1091.83 540.5 998 564L789 491.5C742.167 471.667 645.5 432.4 633.5 434C618.5 436 448 481 431 491.5C417.4 499.9 174.833 470.833 115 491.5L-34 521.5L-6.5 289L67.5 199.5L115 108.5Z" fill="url(#paint0_linear_108_2)"/>
<path d="M385.945 90.5L118.059 117L77.5 225L244.742 211H425.002L597.251 266.5L947.256 236.5L1080.45 251L1284.24 297H1446.98L1462.5 225L1276.23 114L1174.08 89.5L916.712 39L577.722 10L385.945 90.5Z" fill="url(#paint1_linear_108_2)"/>
<path d="M86.5 234.5L-1 500L134.5 471.5H179L421 489.5C420.667 402.333 420.2 226.7 421 221.5C421.8 216.3 361.333 223.667 331 228L86.5 234.5Z" fill="url(#paint2_linear_108_2)"/>
<path d="M591 280.5L441 228L430.5 484.5L630 425L591 280.5Z" fill="url(#paint3_linear_108_2)"/>
<path d="M945 251.5L602.5 280.5L641.5 425L994.5 554L945 251.5Z" fill="url(#paint4_linear_108_2)"/>
<path d="M1272 308L963.5 251.5L1008.5 554L1283.5 480.5L1272 308Z" fill="url(#paint5_linear_108_2)"/>
<path d="M1454 302.5L1283.5 308L1295.5 472.5L1460 390.5L1454 302.5Z" fill="url(#paint6_linear_108_2)"/>
<path d="M-47.8397 466.858L159.294 444.445L307.302 383L561.196 405.027L772.967 444.445L852.188 466.858L970.827 537.191L1040 672.06C977.396 701.816 852.188 761.638 852.188 762.874C852.188 764.111 707.143 800.746 634.62 818.909L473.087 762.874C436.89 747.545 362.177 717.197 352.903 718.433C341.309 719.979 209.532 754.759 196.393 762.874C185.882 769.367 -1.59525 746.901 -47.8397 762.874L-163 786.061L-141.746 606.365L-84.5519 537.191L-47.8397 466.858Z" fill="url(#paint7_linear_108_2)"/>
<path d="M161.571 452.946L-45.4758 473.428L-76.823 556.9L52.4359 546.079H191.757L324.886 588.975L595.401 565.788L698.344 576.995L855.854 612.548H981.63L993.627 556.9L849.662 471.109L770.713 452.173L571.794 413.143L309.793 390.729L161.571 452.946Z" fill="url(#paint8_linear_108_2)"/>
<path d="M-69.8671 564.242L-137.495 769.444L-32.7684 747.417H1.62506L188.664 761.329C188.406 693.958 188.046 558.214 188.664 554.195C189.282 550.176 142.548 555.869 119.104 559.218L-69.8671 564.242Z" fill="url(#paint9_linear_108_2)"/>
<path d="M320.055 599.795L204.122 559.218L196.006 757.464L350.198 711.477L320.055 599.795Z" fill="url(#paint10_linear_108_2)"/>
<path d="M593.657 577.381L328.943 599.795L359.086 711.477L631.915 811.18L593.657 577.381Z" fill="url(#paint11_linear_108_2)"/>
<path d="M846.392 621.049L607.956 577.381L642.736 811.18L855.28 754.373L846.392 621.049Z" fill="url(#paint12_linear_108_2)"/>
<path d="M987.057 616.799L855.28 621.049L864.554 748.189L991.694 684.813L987.057 616.799Z" fill="url(#paint13_linear_108_2)"/>
<path d="M973.16 455.858L1180.29 433.445L1328.3 372L1582.2 394.027L1793.97 433.445L1873.19 455.858L1991.83 526.191L2061 661.06C1998.4 690.816 1873.19 750.638 1873.19 751.874C1873.19 753.111 1728.14 789.746 1655.62 807.909L1494.09 751.874C1457.89 736.545 1383.18 706.197 1373.9 707.433C1362.31 708.979 1230.53 743.759 1217.39 751.874C1206.88 758.367 1019.4 735.901 973.16 751.874L858 775.061L879.254 595.365L936.448 526.191L973.16 455.858Z" fill="url(#paint14_linear_108_2)"/>
<path d="M1182.57 441.946L975.524 462.428L944.177 545.9L1073.44 535.079H1212.76L1345.89 577.975L1616.4 554.788L1719.34 565.995L1876.85 601.548H2002.63L2014.63 545.9L1870.66 460.109L1791.71 441.173L1592.79 402.143L1330.79 379.729L1182.57 441.946Z" fill="url(#paint15_linear_108_2)"/>
<path d="M951.133 553.242L883.505 758.444L988.232 736.417H1022.63L1209.66 750.329C1209.41 682.958 1209.05 547.214 1209.66 543.195C1210.28 539.176 1163.55 544.869 1140.1 548.218L951.133 553.242Z" fill="url(#paint16_linear_108_2)"/>
<path d="M1341.05 588.795L1225.12 548.218L1217.01 746.464L1371.2 700.477L1341.05 588.795Z" fill="url(#paint17_linear_108_2)"/>
<path d="M1614.66 566.381L1349.94 588.795L1380.09 700.477L1652.92 800.18L1614.66 566.381Z" fill="url(#paint18_linear_108_2)"/>
<path d="M1867.39 610.049L1628.96 566.381L1663.74 800.18L1876.28 743.373L1867.39 610.049Z" fill="url(#paint19_linear_108_2)"/>
<path d="M2008.06 605.799L1876.28 610.049L1885.55 737.189L2012.69 673.813L2008.06 605.799Z" fill="url(#paint20_linear_108_2)"/>
<defs>
<linearGradient id="paint0_linear_108_2" x1="744.25" y1="0" x2="658.5" y2="515" gradientUnits="userSpaceOnUse">
<stop stop-color="#681F95"/>
<stop offset="1" stop-color="#210A2F"/>
</linearGradient>
<linearGradient id="paint1_linear_108_2" x1="1462.5" y1="153.5" x2="77.5" y2="153.5" gradientUnits="userSpaceOnUse">
<stop stop-color="#681F95"/>
<stop offset="1" stop-color="#31054C"/>
</linearGradient>
<linearGradient id="paint2_linear_108_2" x1="1460" y1="386.856" x2="-1" y2="386.856" gradientUnits="userSpaceOnUse">
<stop stop-color="#681F95"/>
<stop offset="1" stop-color="#210A2F"/>
</linearGradient>
<linearGradient id="paint3_linear_108_2" x1="1460" y1="386.856" x2="-1" y2="386.856" gradientUnits="userSpaceOnUse">
<stop stop-color="#681F95"/>
<stop offset="1" stop-color="#210A2F"/>
</linearGradient>
<linearGradient id="paint4_linear_108_2" x1="1460" y1="386.856" x2="-1" y2="386.856" gradientUnits="userSpaceOnUse">
<stop stop-color="#681F95"/>
<stop offset="1" stop-color="#210A2F"/>
</linearGradient>
<linearGradient id="paint5_linear_108_2" x1="1460" y1="386.856" x2="-1" y2="386.856" gradientUnits="userSpaceOnUse">
<stop stop-color="#681F95"/>
<stop offset="1" stop-color="#210A2F"/>
</linearGradient>
<linearGradient id="paint6_linear_108_2" x1="1460" y1="386.856" x2="-1" y2="386.856" gradientUnits="userSpaceOnUse">
<stop stop-color="#681F95"/>
<stop offset="1" stop-color="#210A2F"/>
</linearGradient>
<linearGradient id="paint7_linear_108_2" x1="438.5" y1="383" x2="372.225" y2="781.037" gradientUnits="userSpaceOnUse">
<stop stop-color="#681F95"/>
<stop offset="1" stop-color="#210A2F"/>
</linearGradient>
<linearGradient id="paint8_linear_108_2" x1="993.627" y1="501.638" x2="-76.823" y2="501.638" gradientUnits="userSpaceOnUse">
<stop stop-color="#681F95"/>
<stop offset="1" stop-color="#31054C"/>
</linearGradient>
<linearGradient id="paint9_linear_108_2" x1="991.694" y1="681.996" x2="-137.495" y2="681.996" gradientUnits="userSpaceOnUse">
<stop stop-color="#681F95"/>
<stop offset="1" stop-color="#210A2F"/>
</linearGradient>
<linearGradient id="paint10_linear_108_2" x1="991.694" y1="681.996" x2="-137.495" y2="681.996" gradientUnits="userSpaceOnUse">
<stop stop-color="#681F95"/>
<stop offset="1" stop-color="#210A2F"/>
</linearGradient>
<linearGradient id="paint11_linear_108_2" x1="991.694" y1="681.996" x2="-137.495" y2="681.996" gradientUnits="userSpaceOnUse">
<stop stop-color="#681F95"/>
<stop offset="1" stop-color="#210A2F"/>
</linearGradient>
<linearGradient id="paint12_linear_108_2" x1="991.694" y1="681.996" x2="-137.495" y2="681.996" gradientUnits="userSpaceOnUse">
<stop stop-color="#681F95"/>
<stop offset="1" stop-color="#210A2F"/>
</linearGradient>
<linearGradient id="paint13_linear_108_2" x1="991.694" y1="681.996" x2="-137.495" y2="681.996" gradientUnits="userSpaceOnUse">
<stop stop-color="#681F95"/>
<stop offset="1" stop-color="#210A2F"/>
</linearGradient>
<linearGradient id="paint14_linear_108_2" x1="1459.5" y1="372" x2="1393.22" y2="770.037" gradientUnits="userSpaceOnUse">
<stop stop-color="#681F95"/>
<stop offset="1" stop-color="#210A2F"/>
</linearGradient>
<linearGradient id="paint15_linear_108_2" x1="2014.63" y1="490.638" x2="944.177" y2="490.638" gradientUnits="userSpaceOnUse">
<stop stop-color="#681F95"/>
<stop offset="1" stop-color="#31054C"/>
</linearGradient>
<linearGradient id="paint16_linear_108_2" x1="2012.69" y1="670.996" x2="883.505" y2="670.996" gradientUnits="userSpaceOnUse">
<stop stop-color="#681F95"/>
<stop offset="1" stop-color="#210A2F"/>
</linearGradient>
<linearGradient id="paint17_linear_108_2" x1="2012.69" y1="670.996" x2="883.505" y2="670.996" gradientUnits="userSpaceOnUse">
<stop stop-color="#681F95"/>
<stop offset="1" stop-color="#210A2F"/>
</linearGradient>
<linearGradient id="paint18_linear_108_2" x1="2012.69" y1="670.996" x2="883.505" y2="670.996" gradientUnits="userSpaceOnUse">
<stop stop-color="#681F95"/>
<stop offset="1" stop-color="#210A2F"/>
</linearGradient>
<linearGradient id="paint19_linear_108_2" x1="2012.69" y1="670.996" x2="883.505" y2="670.996" gradientUnits="userSpaceOnUse">
<stop stop-color="#681F95"/>
<stop offset="1" stop-color="#210A2F"/>
</linearGradient>
<linearGradient id="paint20_linear_108_2" x1="2012.69" y1="670.996" x2="883.505" y2="670.996" gradientUnits="userSpaceOnUse">
<stop stop-color="#681F95"/>
<stop offset="1" stop-color="#210A2F"/>
</linearGradient>
</defs>
</svg>
