<svg width="1440" height="860" viewBox="0 0 1440 860" fill="none" xmlns="http://www.w3.org/2000/svg">
<g opacity="0.6">
<path d="M-197.858 131.962L-254.307 107.369L-319 764.181L88.822 859.553L435.122 827.763L362.818 620.222L401.507 458.868L282.902 278.32L241.676 163.753L199.816 55.784L88.822 0L-17.0975 107.369L-34.8565 251.328L-148.387 229.734L-197.858 131.962Z" fill="url(#paint0_linear_200_6)"/>
<path d="M-114.138 257.926L-139.508 235.732L-20.269 289.117H22.2256C15.4603 312.71 1.54913 366.615 0.0269318 393.487C-1.87581 427.077 44.4244 488.86 49.4984 514.652C54.5723 540.445 63.4518 617.823 63.4518 625.62C63.4518 631.859 35.9677 600.228 22.2256 583.633L-54.5185 503.256L-77.9857 437.274L-90.0364 359.897L-77.9857 289.117L-114.138 257.926Z" fill="url(#paint1_linear_200_6)"/>
<path d="M22.2256 135.561V221.336L63.4518 359.897L138.293 574.035L170.64 670.608L187.765 599.828L124.34 437.274L63.4518 268.123C57.7436 221.336 46.9613 125.844 49.4984 118.166C52.0353 110.488 75.5025 64.5813 86.919 42.5877L49.4984 69.5799L22.2256 135.561Z" fill="url(#paint2_linear_200_6)"/>
<path d="M170.64 69.5799L124.34 31.1909L146.538 135.561V198.543V261.525L215.037 330.505L231.528 412.682L312.077 437.274L357.743 451.67L334.276 393.487L194.107 250.128L197.913 161.354L170.64 69.5799Z" fill="url(#paint3_linear_200_6)"/>
<path d="M180.788 353.299L146.538 289.117H138.293L111.02 261.525L124.34 359.897L170.64 451.67L231.528 553.041L312.077 599.828V583.633V503.256H284.805C258.589 487.06 204.509 454.07 197.913 451.67C191.316 449.271 183.748 385.089 180.788 353.299Z" fill="url(#paint4_linear_200_6)"/>
<g opacity="0.6">
<path d="M719.233 275.074L756.895 255.318L800.059 782.94L527.959 859.553L296.907 834.016L345.148 667.297L319.335 537.68L398.468 392.644L425.974 300.612L453.904 213.88L527.959 169.068L598.629 255.318L610.477 370.961L686.225 353.615L719.233 275.074Z" fill="url(#paint5_linear_200_6)"/>
<path d="M709.076 466.849L719.232 278.447C712.462 323.419 698.92 414.327 698.92 418.182V466.849C686.648 508.93 660.411 593.092 653.641 593.092C645.177 593.092 646.024 638.386 638.406 649.95C632.313 659.202 622.326 684.964 618.094 696.689L638.406 744.392L657.872 667.779L709.076 593.092V466.849Z" fill="#A0378A"/>
<path d="M663.374 376.262L680.301 358.434L600.744 401.318H572.392C576.906 420.27 586.187 463.572 587.203 485.159C588.472 512.142 557.581 561.773 554.195 582.492C550.81 603.211 544.886 665.37 544.886 671.634C544.886 676.645 563.223 651.235 572.392 637.904L623.596 573.337L639.253 520.334L647.293 458.176L639.253 401.318L663.374 376.262Z" fill="url(#paint6_linear_200_6)"/>
<path d="M572.392 277.965V346.869L544.886 458.176L494.951 630.195L473.369 707.772L461.944 650.914L504.261 520.334L544.886 384.453C548.694 346.869 555.888 270.159 554.195 263.992C552.503 257.824 536.845 220.947 529.228 203.279L554.195 224.962L572.392 277.965Z" fill="url(#paint7_linear_200_6)"/>
<path d="M473.369 224.962L504.261 194.124L489.45 277.965V328.559V379.153L443.747 434.565L432.745 500.578L379.002 520.334L348.534 531.898L364.191 485.159L457.712 369.998L455.173 298.685L473.369 224.962Z" fill="url(#paint8_linear_200_6)"/>
<path d="M466.599 452.875L489.45 401.318H494.951L513.148 379.153L504.261 458.176L473.369 531.898L432.745 613.33L379.002 650.914V637.904V573.337H397.198C414.69 560.327 450.772 533.826 455.173 531.898C459.574 529.971 464.624 478.413 466.599 452.875Z" fill="url(#paint9_linear_200_6)"/>
</g>
</g>
<g opacity="0.6">
<path d="M1712.92 131.962L1769.37 107.369L1834.06 764.181L1426.24 859.553L1079.94 827.763L1152.24 620.222L1113.55 458.868L1232.16 278.32L1273.38 163.753L1315.24 55.784L1426.24 0L1532.16 107.369L1549.92 251.328L1663.45 229.734L1712.92 131.962Z" fill="url(#paint10_linear_200_6)"/>
<path d="M1629.2 257.926L1654.57 235.732L1535.33 289.117H1492.83C1499.6 312.71 1513.51 366.615 1515.03 393.487C1516.93 427.077 1470.63 488.86 1465.56 514.652C1460.49 540.445 1451.61 617.823 1451.61 625.62C1451.61 631.859 1479.09 600.228 1492.83 583.633L1569.58 503.256L1593.04 437.274L1605.09 359.897L1593.04 289.117L1629.2 257.926Z" fill="url(#paint11_linear_200_6)"/>
<path d="M1492.83 135.561V221.336L1451.61 359.897L1376.77 574.035L1344.42 670.608L1327.29 599.828L1390.72 437.274L1451.61 268.123C1457.32 221.336 1468.1 125.844 1465.56 118.166C1463.02 110.488 1439.56 64.5813 1428.14 42.5877L1465.56 69.5799L1492.83 135.561Z" fill="url(#paint12_linear_200_6)"/>
<path d="M1344.42 69.5799L1390.72 31.1909L1368.52 135.561V198.543V261.525L1300.02 330.505L1283.53 412.682L1202.98 437.274L1157.32 451.67L1180.78 393.487L1320.95 250.128L1317.15 161.354L1344.42 69.5799Z" fill="url(#paint13_linear_200_6)"/>
<path d="M1334.27 353.299L1368.52 289.117H1376.77L1404.04 261.525L1390.72 359.897L1344.42 451.67L1283.53 553.041L1202.98 599.828V583.633V503.256H1230.25C1256.47 487.06 1310.55 454.07 1317.15 451.67C1323.74 449.271 1331.31 385.089 1334.27 353.299Z" fill="url(#paint14_linear_200_6)"/>
<g opacity="0.6">
<path d="M795.826 275.074L758.164 255.318L715 782.94L987.1 859.553L1218.15 834.016L1169.91 667.297L1195.72 537.68L1116.59 392.644L1089.08 300.612L1061.16 213.88L987.1 169.068L916.43 255.318L904.581 370.961L828.833 353.615L795.826 275.074Z" fill="url(#paint15_linear_200_6)"/>
<path d="M805.982 466.849L795.826 278.447C802.597 323.419 816.138 414.327 816.138 418.182V466.849C828.41 508.93 854.647 593.092 861.418 593.092C869.881 593.092 869.035 638.386 876.652 649.95C882.746 659.202 892.733 684.964 896.964 696.689L876.652 744.392L857.186 667.779L805.982 593.092V466.849Z" fill="#A0378A"/>
<path d="M851.685 376.262L834.758 358.434L914.314 401.318H942.667C938.153 420.27 928.871 463.572 927.856 485.159C926.586 512.142 957.478 561.773 960.863 582.492C964.249 603.211 970.173 665.37 970.173 671.634C970.173 676.645 951.836 651.235 942.667 637.904L891.463 573.337L875.806 520.334L867.765 458.176L875.806 401.318L851.685 376.262Z" fill="url(#paint16_linear_200_6)"/>
<path d="M942.667 277.965V346.869L970.173 458.176L1020.11 630.195L1041.69 707.772L1053.11 650.914L1010.8 520.334L970.173 384.453C966.364 346.869 959.171 270.159 960.863 263.992C962.556 257.824 978.213 220.947 985.83 203.279L960.863 224.962L942.667 277.965Z" fill="url(#paint17_linear_200_6)"/>
<path d="M1041.69 224.962L1010.8 194.124L1025.61 277.965V328.559V379.153L1071.31 434.565L1082.31 500.578L1136.06 520.334L1166.53 531.898L1150.87 485.159L1057.35 369.998L1059.89 298.685L1041.69 224.962Z" fill="url(#paint18_linear_200_6)"/>
<path d="M1048.46 452.875L1025.61 401.318H1020.11L1001.91 379.153L1010.8 458.176L1041.69 531.898L1082.31 613.33L1136.06 650.914V637.904V573.337H1117.86C1100.37 560.327 1064.29 533.826 1059.89 531.898C1055.48 529.971 1050.43 478.413 1048.46 452.875Z" fill="url(#paint19_linear_200_6)"/>
</g>
</g>
<defs>
<linearGradient id="paint0_linear_200_6" x1="58.0609" y1="0" x2="58.0609" y2="859.553" gradientUnits="userSpaceOnUse">
<stop stop-color="#BE3A85"/>
<stop offset="1" stop-color="#270C46"/>
</linearGradient>
<linearGradient id="paint1_linear_200_6" x1="109.118" y1="31.1909" x2="109.118" y2="670.608" gradientUnits="userSpaceOnUse">
<stop stop-color="#CA2CA9"/>
<stop offset="1" stop-color="#FE9AFC"/>
</linearGradient>
<linearGradient id="paint2_linear_200_6" x1="109.118" y1="31.1909" x2="109.118" y2="670.608" gradientUnits="userSpaceOnUse">
<stop stop-color="#CA2CA9"/>
<stop offset="1" stop-color="#FE9AFC"/>
</linearGradient>
<linearGradient id="paint3_linear_200_6" x1="109.118" y1="31.1909" x2="109.118" y2="670.608" gradientUnits="userSpaceOnUse">
<stop stop-color="#CA2CA9"/>
<stop offset="1" stop-color="#FE9AFC"/>
</linearGradient>
<linearGradient id="paint4_linear_200_6" x1="109.118" y1="31.1909" x2="109.118" y2="670.608" gradientUnits="userSpaceOnUse">
<stop stop-color="#CA2CA9"/>
<stop offset="1" stop-color="#FE9AFC"/>
</linearGradient>
<linearGradient id="paint5_linear_200_6" x1="548.483" y1="169.068" x2="548.483" y2="859.553" gradientUnits="userSpaceOnUse">
<stop stop-color="#BE3A85"/>
<stop offset="1" stop-color="#270C46"/>
</linearGradient>
<linearGradient id="paint6_linear_200_6" x1="514.417" y1="194.124" x2="514.417" y2="707.772" gradientUnits="userSpaceOnUse">
<stop stop-color="#CA2CA9"/>
<stop offset="1" stop-color="#FE9AFC"/>
</linearGradient>
<linearGradient id="paint7_linear_200_6" x1="514.417" y1="194.124" x2="514.417" y2="707.772" gradientUnits="userSpaceOnUse">
<stop stop-color="#CA2CA9"/>
<stop offset="1" stop-color="#FE9AFC"/>
</linearGradient>
<linearGradient id="paint8_linear_200_6" x1="514.417" y1="194.124" x2="514.417" y2="707.772" gradientUnits="userSpaceOnUse">
<stop stop-color="#CA2CA9"/>
<stop offset="1" stop-color="#FE9AFC"/>
</linearGradient>
<linearGradient id="paint9_linear_200_6" x1="514.417" y1="194.124" x2="514.417" y2="707.772" gradientUnits="userSpaceOnUse">
<stop stop-color="#CA2CA9"/>
<stop offset="1" stop-color="#FE9AFC"/>
</linearGradient>
<linearGradient id="paint10_linear_200_6" x1="1457" y1="0" x2="1457" y2="859.553" gradientUnits="userSpaceOnUse">
<stop stop-color="#BE3A85"/>
<stop offset="1" stop-color="#270C46"/>
</linearGradient>
<linearGradient id="paint11_linear_200_6" x1="1405.94" y1="31.1909" x2="1405.94" y2="670.608" gradientUnits="userSpaceOnUse">
<stop stop-color="#CA2CA9"/>
<stop offset="1" stop-color="#FE9AFC"/>
</linearGradient>
<linearGradient id="paint12_linear_200_6" x1="1405.94" y1="31.1909" x2="1405.94" y2="670.608" gradientUnits="userSpaceOnUse">
<stop stop-color="#CA2CA9"/>
<stop offset="1" stop-color="#FE9AFC"/>
</linearGradient>
<linearGradient id="paint13_linear_200_6" x1="1405.94" y1="31.1909" x2="1405.94" y2="670.608" gradientUnits="userSpaceOnUse">
<stop stop-color="#CA2CA9"/>
<stop offset="1" stop-color="#FE9AFC"/>
</linearGradient>
<linearGradient id="paint14_linear_200_6" x1="1405.94" y1="31.1909" x2="1405.94" y2="670.608" gradientUnits="userSpaceOnUse">
<stop stop-color="#CA2CA9"/>
<stop offset="1" stop-color="#FE9AFC"/>
</linearGradient>
<linearGradient id="paint15_linear_200_6" x1="966.576" y1="169.068" x2="966.576" y2="859.553" gradientUnits="userSpaceOnUse">
<stop stop-color="#BE3A85"/>
<stop offset="1" stop-color="#270C46"/>
</linearGradient>
<linearGradient id="paint16_linear_200_6" x1="1000.64" y1="194.124" x2="1000.64" y2="707.772" gradientUnits="userSpaceOnUse">
<stop stop-color="#CA2CA9"/>
<stop offset="1" stop-color="#FE9AFC"/>
</linearGradient>
<linearGradient id="paint17_linear_200_6" x1="1000.64" y1="194.124" x2="1000.64" y2="707.772" gradientUnits="userSpaceOnUse">
<stop stop-color="#CA2CA9"/>
<stop offset="1" stop-color="#FE9AFC"/>
</linearGradient>
<linearGradient id="paint18_linear_200_6" x1="1000.64" y1="194.124" x2="1000.64" y2="707.772" gradientUnits="userSpaceOnUse">
<stop stop-color="#CA2CA9"/>
<stop offset="1" stop-color="#FE9AFC"/>
</linearGradient>
<linearGradient id="paint19_linear_200_6" x1="1000.64" y1="194.124" x2="1000.64" y2="707.772" gradientUnits="userSpaceOnUse">
<stop stop-color="#CA2CA9"/>
<stop offset="1" stop-color="#FE9AFC"/>
</linearGradient>
</defs>
</svg>
