<svg width="1440" height="996" viewBox="0 0 1440 996" fill="none" xmlns="http://www.w3.org/2000/svg">
<g opacity="0.6">
<path d="M1509.92 267.962L1566.37 243.369L1631.06 900.181L1223.24 995.553L876.937 963.763L949.241 756.222L910.552 594.868L1029.16 414.32L1070.38 299.753L1112.24 191.784L1223.24 136L1329.16 243.369L1346.92 387.328L1460.45 365.734L1509.92 267.962Z" fill="url(#paint0_linear_228_2)"/>
<path d="M1494.7 506.694L1509.92 272.161C1499.77 328.145 1479.47 441.313 1479.47 446.111V506.694C1461.08 559.079 1421.76 663.849 1411.61 663.849C1398.92 663.849 1400.19 720.233 1388.78 734.629C1379.64 746.145 1364.67 778.216 1358.33 792.812L1388.78 852.195L1417.95 756.822L1494.7 663.849V506.694Z" fill="#A0378A"/>
<path d="M1426.2 393.926L1451.57 371.733L1332.33 425.117H1289.83C1296.6 448.711 1310.51 502.615 1312.03 529.488C1313.93 563.078 1267.63 624.86 1262.56 650.653C1257.49 676.445 1248.61 753.823 1248.61 761.621C1248.61 767.859 1276.09 736.228 1289.83 719.633L1366.58 639.256L1390.04 573.275L1402.09 495.897L1390.04 425.117L1426.2 393.926Z" fill="url(#paint1_linear_228_2)"/>
<path d="M1289.83 271.561V357.337L1248.61 495.897L1173.77 710.036L1141.42 806.608L1124.29 735.828L1187.72 573.275L1248.61 404.123C1254.32 357.337 1265.1 261.844 1262.56 254.166C1260.02 246.489 1236.56 200.582 1225.14 178.588L1262.56 205.58L1289.83 271.561Z" fill="url(#paint2_linear_228_2)"/>
<path d="M1141.42 205.58L1187.72 167.191L1165.52 271.561V334.543V397.525L1097.02 466.506L1080.53 548.682L999.981 573.275L954.315 587.671L977.783 529.488L1117.95 386.129L1114.15 297.354L1141.42 205.58Z" fill="url(#paint3_linear_228_2)"/>
<path d="M1131.27 489.299L1165.52 425.117H1173.77L1201.04 397.525L1187.72 495.897L1141.42 587.671L1080.53 689.042L999.981 735.828V719.633V639.256H1027.25C1053.47 623.061 1107.55 590.07 1114.15 587.671C1120.74 585.272 1128.31 521.09 1131.27 489.299Z" fill="url(#paint4_linear_228_2)"/>
<g opacity="0.6">
<path d="M592.826 411.075L555.164 391.319L512 918.94L784.1 995.554L1015.15 970.016L966.91 803.297L992.724 673.681L913.591 528.645L886.084 436.612L858.155 349.88L784.1 305.068L713.43 391.319L701.581 506.962L625.833 489.615L592.826 411.075Z" fill="url(#paint5_linear_228_2)"/>
<path d="M602.982 602.849L592.826 414.447C599.597 459.42 613.138 550.328 613.138 554.183V602.849C625.41 644.93 651.647 729.093 658.418 729.093C666.881 729.093 666.035 774.386 673.652 785.951C679.746 795.202 689.733 820.965 693.964 832.69L673.652 880.393L654.186 803.779L602.982 729.093V602.849Z" fill="#A0378A"/>
<path d="M648.685 512.262L631.758 494.434L711.314 537.318H739.667C735.153 556.27 725.871 599.572 724.856 621.159C723.586 648.142 754.478 697.773 757.863 718.492C761.249 739.211 767.173 801.37 767.173 807.634C767.173 812.645 748.836 787.235 739.667 773.904L688.463 709.337L672.806 656.334L664.765 594.176L672.806 537.318L648.685 512.262Z" fill="url(#paint6_linear_228_2)"/>
<path d="M739.667 413.965V482.869L767.173 594.176L817.107 766.195L838.689 843.772L850.115 786.914L807.798 656.334L767.173 520.453C763.364 482.869 756.171 406.159 757.863 399.992C759.556 393.824 775.213 356.947 782.83 339.279L757.863 360.962L739.667 413.965Z" fill="url(#paint7_linear_228_2)"/>
<path d="M838.689 360.962L807.798 330.124L822.609 413.965V464.559V515.153L868.311 570.565L879.314 636.578L933.057 656.334L963.525 667.898L947.868 621.159L854.347 505.998L856.886 434.685L838.689 360.962Z" fill="url(#paint8_linear_228_2)"/>
<path d="M845.46 588.875L822.609 537.318H817.107L798.911 515.153L807.798 594.176L838.689 667.898L879.314 749.33L933.057 786.914V773.904V709.337H914.86C897.369 696.327 861.287 669.826 856.886 667.898C852.485 665.971 847.435 614.413 845.46 588.875Z" fill="url(#paint9_linear_228_2)"/>
</g>
</g>
<g opacity="0.6">
<path d="M642.917 131.962L699.365 107.369L764.059 764.181L356.237 859.553L9.93671 827.763L82.2411 620.222L43.5519 458.868L162.156 278.32L203.383 163.753L245.243 55.784L356.237 0L462.156 107.369L479.915 251.328L593.446 229.734L642.917 131.962Z" fill="url(#paint10_linear_228_2)"/>
<path d="M627.696 370.694L642.918 136.161C632.77 192.145 612.474 305.313 612.474 310.111V370.694C594.081 423.079 554.757 527.849 544.609 527.849C531.924 527.849 533.193 584.233 521.776 598.629C512.643 610.145 497.675 642.216 491.333 656.812L521.776 716.195L550.952 620.822L627.696 527.849V370.694Z" fill="#A0378A"/>
<path d="M559.196 257.926L584.566 235.733L465.328 289.117H422.833C429.598 312.711 443.509 366.615 445.032 393.488C446.934 427.078 400.634 488.86 395.56 514.653C390.486 540.445 381.607 617.823 381.607 625.621C381.607 631.859 409.091 600.228 422.833 583.633L499.577 503.256L523.044 437.275L535.095 359.897L523.044 289.117L559.196 257.926Z" fill="url(#paint11_linear_228_2)"/>
<path d="M422.833 135.561V221.337L381.607 359.897L306.765 574.036L274.419 670.608L257.294 599.828L320.719 437.275L381.607 268.123C387.315 221.337 398.097 125.844 395.56 118.166C393.023 110.489 369.556 64.5818 358.14 42.5881L395.56 69.5804L422.833 135.561Z" fill="url(#paint12_linear_228_2)"/>
<path d="M274.419 69.5804L320.719 31.1914L298.52 135.561V198.543V261.525L230.021 330.506L213.531 412.682L132.981 437.275L87.3153 451.671L110.783 393.488L250.952 250.129L247.146 161.354L274.419 69.5804Z" fill="url(#paint13_linear_228_2)"/>
<path d="M264.271 353.299L298.52 289.117H306.765L334.038 261.525L320.719 359.897L274.419 451.671L213.531 553.042L132.981 599.828V583.633V503.256H160.254C186.47 487.061 240.55 454.07 247.146 451.671C253.742 449.272 261.311 385.09 264.271 353.299Z" fill="url(#paint14_linear_228_2)"/>
<g opacity="0.6">
<path d="M-274.174 275.075L-311.836 255.319L-355 782.94L-82.9001 859.554L148.152 834.016L99.9104 667.297L125.724 537.681L46.5906 392.645L19.0844 300.612L-8.84494 213.88L-82.9001 169.068L-153.57 255.319L-165.419 370.962L-241.167 353.615L-274.174 275.075Z" fill="url(#paint15_linear_228_2)"/>
<path d="M-218.315 376.262L-235.242 358.434L-155.686 401.318H-127.333C-131.847 420.27 -141.129 463.572 -142.144 485.159C-143.414 512.142 -112.522 561.773 -109.137 582.492C-105.751 603.211 -99.827 665.37 -99.827 671.634C-99.827 676.645 -118.164 651.235 -127.333 637.904L-178.537 573.337L-194.194 520.334L-202.235 458.176L-194.194 401.318L-218.315 376.262Z" fill="url(#paint16_linear_228_2)"/>
<path d="M-127.333 277.965V346.869L-99.827 458.176L-49.8926 630.195L-28.3109 707.772L-16.8852 650.914L-59.2024 520.334L-99.827 384.453C-103.636 346.869 -110.829 270.159 -109.137 263.992C-107.444 257.824 -91.7867 220.947 -84.1696 203.279L-109.137 224.962L-127.333 277.965Z" fill="url(#paint17_linear_228_2)"/>
<path d="M-28.3109 224.962L-59.2024 194.124L-44.3914 277.965V328.559V379.153L1.31122 434.565L12.3137 500.578L66.0566 520.334L96.525 531.898L80.8676 485.159L-12.6535 369.998L-10.1144 298.685L-28.3109 224.962Z" fill="url(#paint18_linear_228_2)"/>
<path d="M-21.5401 452.875L-44.3914 401.318H-49.8926L-68.0891 379.153L-59.2024 458.176L-28.3109 531.898L12.3137 613.33L66.0566 650.914V637.904V573.337H47.8602C30.3691 560.327 -5.71344 533.826 -10.1144 531.898C-14.5154 529.971 -19.5653 478.413 -21.5401 452.875Z" fill="url(#paint19_linear_228_2)"/>
</g>
</g>
<defs>
<linearGradient id="paint0_linear_228_2" x1="1254" y1="136" x2="1254" y2="995.553" gradientUnits="userSpaceOnUse">
<stop stop-color="#BE3A85"/>
<stop offset="1" stop-color="#270C46"/>
</linearGradient>
<linearGradient id="paint1_linear_228_2" x1="1202.94" y1="167.191" x2="1202.94" y2="806.608" gradientUnits="userSpaceOnUse">
<stop stop-color="#CA2CA9"/>
<stop offset="1" stop-color="#FE9AFC"/>
</linearGradient>
<linearGradient id="paint2_linear_228_2" x1="1202.94" y1="167.191" x2="1202.94" y2="806.608" gradientUnits="userSpaceOnUse">
<stop stop-color="#CA2CA9"/>
<stop offset="1" stop-color="#FE9AFC"/>
</linearGradient>
<linearGradient id="paint3_linear_228_2" x1="1202.94" y1="167.191" x2="1202.94" y2="806.608" gradientUnits="userSpaceOnUse">
<stop stop-color="#CA2CA9"/>
<stop offset="1" stop-color="#FE9AFC"/>
</linearGradient>
<linearGradient id="paint4_linear_228_2" x1="1202.94" y1="167.191" x2="1202.94" y2="806.608" gradientUnits="userSpaceOnUse">
<stop stop-color="#CA2CA9"/>
<stop offset="1" stop-color="#FE9AFC"/>
</linearGradient>
<linearGradient id="paint5_linear_228_2" x1="763.576" y1="305.068" x2="763.576" y2="995.554" gradientUnits="userSpaceOnUse">
<stop stop-color="#BE3A85"/>
<stop offset="1" stop-color="#270C46"/>
</linearGradient>
<linearGradient id="paint6_linear_228_2" x1="797.641" y1="330.124" x2="797.641" y2="843.772" gradientUnits="userSpaceOnUse">
<stop stop-color="#CA2CA9"/>
<stop offset="1" stop-color="#FE9AFC"/>
</linearGradient>
<linearGradient id="paint7_linear_228_2" x1="797.641" y1="330.124" x2="797.641" y2="843.772" gradientUnits="userSpaceOnUse">
<stop stop-color="#CA2CA9"/>
<stop offset="1" stop-color="#FE9AFC"/>
</linearGradient>
<linearGradient id="paint8_linear_228_2" x1="797.641" y1="330.124" x2="797.641" y2="843.772" gradientUnits="userSpaceOnUse">
<stop stop-color="#CA2CA9"/>
<stop offset="1" stop-color="#FE9AFC"/>
</linearGradient>
<linearGradient id="paint9_linear_228_2" x1="797.641" y1="330.124" x2="797.641" y2="843.772" gradientUnits="userSpaceOnUse">
<stop stop-color="#CA2CA9"/>
<stop offset="1" stop-color="#FE9AFC"/>
</linearGradient>
<linearGradient id="paint10_linear_228_2" x1="386.998" y1="0" x2="386.998" y2="859.553" gradientUnits="userSpaceOnUse">
<stop stop-color="#BE3A85"/>
<stop offset="1" stop-color="#270C46"/>
</linearGradient>
<linearGradient id="paint11_linear_228_2" x1="335.941" y1="31.1914" x2="335.941" y2="670.608" gradientUnits="userSpaceOnUse">
<stop stop-color="#CA2CA9"/>
<stop offset="1" stop-color="#FE9AFC"/>
</linearGradient>
<linearGradient id="paint12_linear_228_2" x1="335.941" y1="31.1914" x2="335.941" y2="670.608" gradientUnits="userSpaceOnUse">
<stop stop-color="#CA2CA9"/>
<stop offset="1" stop-color="#FE9AFC"/>
</linearGradient>
<linearGradient id="paint13_linear_228_2" x1="335.941" y1="31.1914" x2="335.941" y2="670.608" gradientUnits="userSpaceOnUse">
<stop stop-color="#CA2CA9"/>
<stop offset="1" stop-color="#FE9AFC"/>
</linearGradient>
<linearGradient id="paint14_linear_228_2" x1="335.941" y1="31.1914" x2="335.941" y2="670.608" gradientUnits="userSpaceOnUse">
<stop stop-color="#CA2CA9"/>
<stop offset="1" stop-color="#FE9AFC"/>
</linearGradient>
<linearGradient id="paint15_linear_228_2" x1="-103.424" y1="169.068" x2="-103.424" y2="859.554" gradientUnits="userSpaceOnUse">
<stop stop-color="#BE3A85"/>
<stop offset="1" stop-color="#270C46"/>
</linearGradient>
<linearGradient id="paint16_linear_228_2" x1="-69.3586" y1="194.124" x2="-69.3586" y2="707.772" gradientUnits="userSpaceOnUse">
<stop stop-color="#CA2CA9"/>
<stop offset="1" stop-color="#FE9AFC"/>
</linearGradient>
<linearGradient id="paint17_linear_228_2" x1="-69.3586" y1="194.124" x2="-69.3586" y2="707.772" gradientUnits="userSpaceOnUse">
<stop stop-color="#CA2CA9"/>
<stop offset="1" stop-color="#FE9AFC"/>
</linearGradient>
<linearGradient id="paint18_linear_228_2" x1="-69.3586" y1="194.124" x2="-69.3586" y2="707.772" gradientUnits="userSpaceOnUse">
<stop stop-color="#CA2CA9"/>
<stop offset="1" stop-color="#FE9AFC"/>
</linearGradient>
<linearGradient id="paint19_linear_228_2" x1="-69.3586" y1="194.124" x2="-69.3586" y2="707.772" gradientUnits="userSpaceOnUse">
<stop stop-color="#CA2CA9"/>
<stop offset="1" stop-color="#FE9AFC"/>
</linearGradient>
</defs>
</svg>
