<svg width="1190" height="575" viewBox="0 0 1190 575" fill="none" xmlns="http://www.w3.org/2000/svg">
<g opacity="0.6">
<path d="M348.335 85.8514L379.399 72.6472L415 425.294L190.572 476.5L0 459.431L39.7898 348.001L18.4987 261.37L83.7679 164.432L106.455 102.92L129.491 44.9508L190.572 15L248.86 72.6472L258.633 149.94L321.11 138.346L348.335 85.8514Z" fill="url(#paint0_linear_160_2)"/>
<path d="M339.958 214.028L348.335 88.1057C342.75 118.164 331.581 178.924 331.581 181.501V214.028C321.459 242.154 299.819 298.405 294.235 298.405C287.254 298.405 287.952 328.678 281.669 336.408C276.643 342.591 268.406 359.81 264.916 367.647L281.669 399.53L297.725 348.323L339.958 298.405V214.028Z" fill="#A0378A"/>
<path d="M302.262 153.482L316.224 141.566L250.605 170.229H227.22C230.943 182.896 238.599 211.838 239.436 226.266C240.484 244.301 215.004 277.472 212.212 291.32C209.42 305.169 204.533 346.713 204.533 350.9C204.533 354.249 219.658 337.266 227.22 328.356L269.453 285.201L282.367 249.776L288.999 208.231L282.367 170.229L302.262 153.482Z" fill="url(#paint1_linear_160_2)"/>
<path d="M227.22 87.7837V133.837L204.533 208.231L163.347 323.203L145.547 375.054L136.123 337.052L171.026 249.776L204.533 158.957C207.674 133.837 213.608 82.5664 212.212 78.4442C210.816 74.3219 197.902 49.6742 191.619 37.8657L212.212 52.358L227.22 87.7837Z" fill="url(#paint2_linear_160_2)"/>
<path d="M145.547 52.358L171.026 31.7467L158.81 87.7837V121.599V155.415L121.114 192.45L112.039 236.572L67.7123 249.776L42.5819 257.505L55.4961 226.266L132.632 149.296L130.538 101.632L145.547 52.358Z" fill="url(#paint3_linear_160_2)"/>
<path d="M139.962 204.688L158.81 170.229H163.347L178.356 155.415L171.026 208.231L145.547 257.505L112.039 311.932L67.7123 337.052V328.356V285.201H82.7207C97.1474 276.506 126.908 258.793 130.538 257.505C134.168 256.217 138.333 221.757 139.962 204.688Z" fill="url(#paint4_linear_160_2)"/>
</g>
<g opacity="0.6">
<path d="M427.918 88.1996L381.359 71.7624L328 510.756L664.372 574.5L950 553.252L890.363 414.538L922.274 306.694L824.449 186.021L790.446 109.448L755.919 37.2844L664.372 0L577.009 71.7624L562.362 167.98L468.722 153.547L427.918 88.1996Z" fill="url(#paint5_linear_160_2)"/>
<path d="M440.473 247.761L427.917 91.0059C436.288 128.424 453.028 204.062 453.028 207.269V247.761C468.198 282.773 500.632 352.798 509.002 352.798C519.465 352.798 518.419 390.484 527.835 400.105C535.368 407.803 547.714 429.238 552.945 438.993L527.835 478.683L503.771 414.939L440.473 352.798V247.761Z" fill="#A0378A"/>
<path d="M496.971 172.39L476.046 157.557L574.394 193.237H609.443C603.863 209.006 592.389 245.034 591.134 262.995C589.565 285.446 627.753 326.739 631.938 343.978C636.123 361.217 643.447 412.934 643.447 418.146C643.447 422.316 620.778 401.174 609.443 390.083L546.145 336.361L526.789 292.261L516.85 240.544L526.789 193.237L496.971 172.39Z" fill="url(#paint6_linear_160_2)"/>
<path d="M609.443 90.605V147.935L643.447 240.544L705.176 383.668L731.856 448.214L745.98 400.907L693.667 292.261L643.447 179.205C638.739 147.935 629.845 84.1103 631.938 78.9787C634.031 73.8471 653.386 43.1643 662.803 28.4644L631.938 46.5052L609.443 90.605Z" fill="url(#paint7_linear_160_2)"/>
<path d="M731.856 46.5052L693.667 20.8472L711.977 90.605V132.7V174.796L768.475 220.9L782.076 275.824L848.513 292.261L886.179 301.883L866.823 262.995L751.211 167.178L754.35 107.844L731.856 46.5052Z" fill="url(#paint8_linear_160_2)"/>
<path d="M740.226 236.134L711.977 193.237H705.176L682.681 174.796L693.667 240.544L731.856 301.883L782.076 369.636L848.513 400.907V390.083V336.361H826.019C804.396 325.537 759.791 303.487 754.35 301.883C748.91 300.279 742.667 257.382 740.226 236.134Z" fill="url(#paint9_linear_160_2)"/>
<g opacity="0.6">
<path d="M1184.33 183.851L1215.4 170.647L1251 523.294L1026.57 574.5L836 557.431L875.79 446.001L854.499 359.37L919.768 262.432L942.455 200.92L965.491 142.951L1026.57 113L1084.86 170.647L1094.63 247.94L1157.11 236.346L1184.33 183.851Z" fill="url(#paint10_linear_160_2)"/>
<path d="M1175.96 312.028L1184.33 186.106C1178.75 216.164 1167.58 276.924 1167.58 279.501V312.028C1157.46 340.154 1135.82 396.405 1130.23 396.405C1123.25 396.405 1123.95 426.678 1117.67 434.408C1112.64 440.591 1104.41 457.81 1100.92 465.647L1117.67 497.53L1133.72 446.323L1175.96 396.405V312.028Z" fill="#A0378A"/>
<path d="M1138.26 251.482L1152.22 239.566L1086.61 268.229H1063.22C1066.94 280.896 1074.6 309.838 1075.44 324.266C1076.48 342.301 1051 375.472 1048.21 389.32C1045.42 403.169 1040.53 444.713 1040.53 448.9C1040.53 452.249 1055.66 435.266 1063.22 426.356L1105.45 383.201L1118.37 347.776L1125 306.231L1118.37 268.229L1138.26 251.482Z" fill="url(#paint11_linear_160_2)"/>
<path d="M1063.22 185.784V231.837L1040.53 306.231L999.347 421.203L981.547 473.054L972.123 435.052L1007.03 347.776L1040.53 256.957C1043.67 231.837 1049.61 180.566 1048.21 176.444C1046.82 172.322 1033.9 147.674 1027.62 135.866L1048.21 150.358L1063.22 185.784Z" fill="url(#paint12_linear_160_2)"/>
<path d="M981.547 150.358L1007.03 129.747L994.81 185.784V219.599V253.415L957.114 290.45L948.039 334.572L903.712 347.776L878.582 355.505L891.496 324.266L968.632 247.296L966.538 199.632L981.547 150.358Z" fill="url(#paint13_linear_160_2)"/>
<path d="M975.962 302.688L994.81 268.229H999.347L1014.36 253.415L1007.03 306.231L981.547 355.505L948.039 409.932L903.712 435.052V426.356V383.201H918.721C933.147 374.506 962.908 356.793 966.538 355.505C970.168 354.217 974.333 319.757 975.962 302.688Z" fill="url(#paint14_linear_160_2)"/>
</g>
</g>
<defs>
<linearGradient id="paint0_linear_160_2" x1="207.5" y1="15" x2="207.5" y2="476.5" gradientUnits="userSpaceOnUse">
<stop stop-color="#BE3A85"/>
<stop offset="1" stop-color="#270C46"/>
</linearGradient>
<linearGradient id="paint1_linear_160_2" x1="179.403" y1="31.7467" x2="179.403" y2="375.054" gradientUnits="userSpaceOnUse">
<stop stop-color="#CA2CA9"/>
<stop offset="1" stop-color="#FE9AFC"/>
</linearGradient>
<linearGradient id="paint2_linear_160_2" x1="179.403" y1="31.7467" x2="179.403" y2="375.054" gradientUnits="userSpaceOnUse">
<stop stop-color="#CA2CA9"/>
<stop offset="1" stop-color="#FE9AFC"/>
</linearGradient>
<linearGradient id="paint3_linear_160_2" x1="179.403" y1="31.7467" x2="179.403" y2="375.054" gradientUnits="userSpaceOnUse">
<stop stop-color="#CA2CA9"/>
<stop offset="1" stop-color="#FE9AFC"/>
</linearGradient>
<linearGradient id="paint4_linear_160_2" x1="179.403" y1="31.7467" x2="179.403" y2="375.054" gradientUnits="userSpaceOnUse">
<stop stop-color="#CA2CA9"/>
<stop offset="1" stop-color="#FE9AFC"/>
</linearGradient>
<linearGradient id="paint5_linear_160_2" x1="639" y1="0" x2="639" y2="574.5" gradientUnits="userSpaceOnUse">
<stop stop-color="#BE3A85"/>
<stop offset="1" stop-color="#270C46"/>
</linearGradient>
<linearGradient id="paint6_linear_160_2" x1="681.112" y1="20.8472" x2="681.112" y2="448.214" gradientUnits="userSpaceOnUse">
<stop stop-color="#CA2CA9"/>
<stop offset="1" stop-color="#FE9AFC"/>
</linearGradient>
<linearGradient id="paint7_linear_160_2" x1="681.112" y1="20.8472" x2="681.112" y2="448.214" gradientUnits="userSpaceOnUse">
<stop stop-color="#CA2CA9"/>
<stop offset="1" stop-color="#FE9AFC"/>
</linearGradient>
<linearGradient id="paint8_linear_160_2" x1="681.112" y1="20.8472" x2="681.112" y2="448.214" gradientUnits="userSpaceOnUse">
<stop stop-color="#CA2CA9"/>
<stop offset="1" stop-color="#FE9AFC"/>
</linearGradient>
<linearGradient id="paint9_linear_160_2" x1="681.112" y1="20.8472" x2="681.112" y2="448.214" gradientUnits="userSpaceOnUse">
<stop stop-color="#CA2CA9"/>
<stop offset="1" stop-color="#FE9AFC"/>
</linearGradient>
<linearGradient id="paint10_linear_160_2" x1="1043.5" y1="113" x2="1043.5" y2="574.5" gradientUnits="userSpaceOnUse">
<stop stop-color="#BE3A85"/>
<stop offset="1" stop-color="#270C46"/>
</linearGradient>
<linearGradient id="paint11_linear_160_2" x1="1015.4" y1="129.747" x2="1015.4" y2="473.054" gradientUnits="userSpaceOnUse">
<stop stop-color="#CA2CA9"/>
<stop offset="1" stop-color="#FE9AFC"/>
</linearGradient>
<linearGradient id="paint12_linear_160_2" x1="1015.4" y1="129.747" x2="1015.4" y2="473.054" gradientUnits="userSpaceOnUse">
<stop stop-color="#CA2CA9"/>
<stop offset="1" stop-color="#FE9AFC"/>
</linearGradient>
<linearGradient id="paint13_linear_160_2" x1="1015.4" y1="129.747" x2="1015.4" y2="473.054" gradientUnits="userSpaceOnUse">
<stop stop-color="#CA2CA9"/>
<stop offset="1" stop-color="#FE9AFC"/>
</linearGradient>
<linearGradient id="paint14_linear_160_2" x1="1015.4" y1="129.747" x2="1015.4" y2="473.054" gradientUnits="userSpaceOnUse">
<stop stop-color="#CA2CA9"/>
<stop offset="1" stop-color="#FE9AFC"/>
</linearGradient>
</defs>
</svg>
