<svg width="1440" height="466" viewBox="0 0 1440 466" fill="none" xmlns="http://www.w3.org/2000/svg">
<path d="M334.328 217.555L305.285 205.338L272 531.622L481.827 579L660 563.207L622.799 460.107L642.705 379.952L581.682 290.261L560.471 233.348L538.934 179.712L481.827 152L427.331 205.338L418.193 276.852L359.781 266.125L334.328 217.555Z" fill="url(#paint0_linear_229_5)"/>
<path d="M342.16 336.149L334.328 219.641C339.549 247.452 349.992 303.67 349.992 306.054V336.149C359.455 362.173 379.687 414.219 384.908 414.219C391.435 414.219 390.782 442.229 396.656 449.38C401.355 455.101 409.056 471.033 412.32 478.284L396.656 507.784L381.645 460.405L342.16 414.219V336.149Z" fill="#A0378A"/>
<path d="M377.403 280.13L364.35 269.105L425.699 295.624H447.563C444.082 307.345 436.924 334.123 436.141 347.472C435.162 364.159 458.984 394.851 461.595 407.663C464.205 420.476 468.774 458.915 468.774 462.789C468.774 465.888 454.633 450.175 447.563 441.931L408.077 402.002L396.003 369.225L389.803 330.786L396.003 295.624L377.403 280.13Z" fill="url(#paint1_linear_229_5)"/>
<path d="M447.563 219.342V261.953L468.774 330.786L507.28 437.163L523.923 485.137L532.733 449.976L500.101 369.225L468.774 285.195C465.837 261.953 460.289 214.515 461.595 210.701C462.9 206.887 474.974 184.082 480.848 173.156L461.595 186.565L447.563 219.342Z" fill="url(#paint2_linear_229_5)"/>
<path d="M523.923 186.565L500.101 167.495L511.522 219.342V250.63V281.918L546.765 316.185L555.25 357.008L596.693 369.225L620.188 376.376L608.114 347.472L535.997 276.256L537.955 232.155L523.923 186.565Z" fill="url(#paint3_linear_229_5)"/>
<path d="M529.144 327.508L511.522 295.624H507.28L493.248 281.918L500.101 330.786L523.923 376.376L555.25 426.734L596.693 449.976V441.931V402.002H582.661C569.173 393.957 541.348 377.568 537.955 376.376C534.561 375.184 530.667 343.301 529.144 327.508Z" fill="url(#paint4_linear_229_5)"/>
<path d="M939.328 109.575L910.285 92.3224L877 553.094L1086.83 620L1265 597.698L1227.8 452.103L1247.7 338.909L1186.68 212.249L1165.47 131.877L1143.93 56.134L1086.83 17L1032.33 92.3224L1023.19 193.313L964.781 178.165L939.328 109.575Z" fill="url(#paint5_linear_229_5)"/>
<path d="M947.16 277.052L939.328 112.521C944.549 151.795 954.992 231.185 954.992 234.551V277.052C964.455 313.801 984.687 387.3 989.908 387.3C996.435 387.3 995.782 426.855 1001.66 436.954C1006.36 445.033 1014.06 467.532 1017.32 477.771L1001.66 519.43L986.645 452.523L947.16 387.3V277.052Z" fill="#A0378A"/>
<path d="M982.403 197.942L969.35 182.373L1030.7 219.823H1052.56C1049.08 236.375 1041.92 274.19 1041.14 293.042C1040.16 316.606 1063.98 359.948 1066.59 378.043C1069.21 396.137 1073.77 450.419 1073.77 455.89C1073.77 460.266 1059.63 438.076 1052.56 426.434L1013.08 370.047L1001 323.76L994.803 269.477L1001 219.823L982.403 197.942Z" fill="url(#paint6_linear_229_5)"/>
<path d="M1052.56 112.1V172.274L1073.77 269.477L1112.28 419.701L1128.92 487.449L1137.73 437.796L1105.1 323.76L1073.77 205.096C1070.84 172.274 1065.29 105.283 1066.59 99.8967C1067.9 94.5105 1079.97 62.3056 1085.85 46.8765L1066.59 65.8123L1052.56 112.1Z" fill="url(#paint7_linear_229_5)"/>
<path d="M1128.92 65.8123L1105.1 38.8813L1116.52 112.1V156.283V200.467L1151.77 248.858L1160.25 306.507L1201.69 323.76L1225.19 333.859L1213.11 293.042L1141 192.472L1142.95 130.194L1128.92 65.8123Z" fill="url(#paint8_linear_229_5)"/>
<path d="M1134.14 264.849L1116.52 219.823H1112.28L1098.25 200.467L1105.1 269.477L1128.92 333.859L1160.25 404.973L1201.69 437.796V426.434V370.047H1187.66C1174.17 358.686 1146.35 335.542 1142.95 333.859C1139.56 332.176 1135.67 287.151 1134.14 264.849Z" fill="url(#paint9_linear_229_5)"/>
<path d="M1246.33 92.575L1217.29 75.3224L1184 536.094L1393.83 603L1572 580.698L1534.8 435.103L1554.7 321.909L1493.68 195.249L1472.47 114.877L1450.93 39.134L1393.83 0L1339.33 75.3224L1330.19 176.313L1271.78 161.165L1246.33 92.575Z" fill="url(#paint10_linear_229_5)"/>
<path d="M1254.16 260.052L1246.33 95.5205C1251.55 134.795 1261.99 214.185 1261.99 217.551V260.052C1271.46 296.801 1291.69 370.3 1296.91 370.3C1303.43 370.3 1302.78 409.855 1308.66 419.954C1313.36 428.033 1321.06 450.532 1324.32 460.771L1308.66 502.43L1293.65 435.523L1254.16 370.3V260.052Z" fill="#A0378A"/>
<path d="M1289.4 180.942L1276.35 165.373L1337.7 202.823H1359.56C1356.08 219.375 1348.92 257.19 1348.14 276.042C1347.16 299.606 1370.98 342.948 1373.59 361.043C1376.21 379.137 1380.77 433.419 1380.77 438.89C1380.77 443.266 1366.63 421.076 1359.56 409.434L1320.08 353.047L1308 306.76L1301.8 252.477L1308 202.823L1289.4 180.942Z" fill="url(#paint11_linear_229_5)"/>
<path d="M1359.56 95.0998V155.274L1380.77 252.477L1419.28 402.701L1435.92 470.449L1444.73 420.796L1412.1 306.76L1380.77 188.096C1377.84 155.274 1372.29 88.2829 1373.59 82.8967C1374.9 77.5105 1386.97 45.3056 1392.85 29.8765L1373.59 48.8123L1359.56 95.0998Z" fill="url(#paint12_linear_229_5)"/>
<path d="M1435.92 48.8123L1412.1 21.8813L1423.52 95.0998V139.283V183.467L1458.77 231.858L1467.25 289.507L1508.69 306.76L1532.19 316.859L1520.11 276.042L1448 175.472L1449.95 113.194L1435.92 48.8123Z" fill="url(#paint13_linear_229_5)"/>
<path d="M1441.14 247.849L1423.52 202.823H1419.28L1405.25 183.467L1412.1 252.477L1435.92 316.859L1467.25 387.973L1508.69 420.796V409.434V353.047H1494.66C1481.17 341.686 1453.35 318.542 1449.95 316.859C1446.56 315.176 1442.67 270.151 1441.14 247.849Z" fill="url(#paint14_linear_229_5)"/>
<path d="M892.672 109.575L921.715 92.3224L955 553.094L745.173 620L567 597.698L604.201 452.103L584.295 338.909L645.318 212.249L666.529 131.877L688.066 56.134L745.173 17L799.669 92.3224L808.807 193.313L867.219 178.165L892.672 109.575Z" fill="url(#paint15_linear_229_5)"/>
<path d="M884.84 277.052L892.672 112.521C887.451 151.795 877.008 231.185 877.008 234.551V277.052C867.545 313.801 847.313 387.3 842.092 387.3C835.565 387.3 836.218 426.855 830.344 436.954C825.645 445.033 817.944 467.532 814.68 477.771L830.344 519.43L845.355 452.523L884.84 387.3V277.052Z" fill="#A0378A"/>
<path d="M849.597 197.942L862.65 182.373L801.301 219.823H779.437C782.918 236.375 790.076 274.19 790.859 293.042C791.838 316.606 768.016 359.948 765.405 378.043C762.795 396.137 758.226 450.419 758.226 455.89C758.226 460.266 772.367 438.076 779.437 426.434L818.923 370.047L830.997 323.76L837.197 269.477L830.997 219.823L849.597 197.942Z" fill="url(#paint16_linear_229_5)"/>
<path d="M779.437 112.1V172.274L758.226 269.477L719.72 419.701L703.077 487.449L694.267 437.796L726.899 323.76L758.226 205.096C761.163 172.274 766.711 105.283 765.405 99.8967C764.1 94.5105 752.026 62.3056 746.152 46.8765L765.405 65.8123L779.437 112.1Z" fill="url(#paint17_linear_229_5)"/>
<path d="M703.077 65.8123L726.899 38.8813L715.478 112.1V156.283V200.467L680.235 248.858L671.75 306.507L630.307 323.76L606.812 333.859L618.886 293.042L691.003 192.472L689.045 130.194L703.077 65.8123Z" fill="url(#paint18_linear_229_5)"/>
<path d="M697.856 264.849L715.478 219.823H719.72L733.752 200.467L726.899 269.477L703.077 333.859L671.75 404.973L630.307 437.796V426.434V370.047H644.339C657.827 358.686 685.652 335.542 689.045 333.859C692.439 332.176 696.333 287.151 697.856 264.849Z" fill="url(#paint19_linear_229_5)"/>
<path d="M279.672 217.555L308.715 205.338L342 531.622L132.173 579L-46 563.207L-8.79898 460.107L-28.7048 379.952L32.3179 290.261L53.529 233.348L75.0664 179.712L132.173 152L186.669 205.338L195.807 276.852L254.219 266.125L279.672 217.555Z" fill="url(#paint20_linear_229_5)"/>
<path d="M271.84 336.149L279.672 219.641C274.451 247.452 264.008 303.67 264.008 306.054V336.149C254.545 362.173 234.313 414.219 229.092 414.219C222.565 414.219 223.218 442.229 217.344 449.38C212.645 455.101 204.944 471.033 201.68 478.284L217.344 507.784L232.355 460.405L271.84 414.219V336.149Z" fill="#A0378A"/>
<path d="M236.597 280.13L249.65 269.105L188.301 295.624H166.437C169.918 307.345 177.076 334.123 177.859 347.472C178.838 364.159 155.016 394.851 152.405 407.663C149.795 420.476 145.226 458.915 145.226 462.789C145.226 465.888 159.367 450.175 166.437 441.931L205.923 402.002L217.997 369.225L224.197 330.786L217.997 295.624L236.597 280.13Z" fill="url(#paint21_linear_229_5)"/>
<path d="M166.437 219.342V261.953L145.226 330.786L106.72 437.163L90.0774 485.137L81.2666 449.976L113.899 369.225L145.226 285.195C148.163 261.953 153.711 214.515 152.405 210.701C151.1 206.887 139.026 184.082 133.152 173.156L152.405 186.565L166.437 219.342Z" fill="url(#paint22_linear_229_5)"/>
<path d="M90.0774 186.565L113.899 167.495L102.478 219.342V250.63V281.918L67.2347 316.185L58.7502 357.008L17.307 369.225L-6.18837 376.376L5.88564 347.472L78.0034 276.256L76.0454 232.155L90.0774 186.565Z" fill="url(#paint23_linear_229_5)"/>
<path d="M84.8562 327.508L102.478 295.624H106.72L120.752 281.918L113.899 330.786L90.0774 376.376L58.7502 426.734L17.307 449.976V441.931V402.002H31.339C44.827 393.957 72.6517 377.568 76.0454 376.376C79.4392 375.184 83.3334 343.301 84.8562 327.508Z" fill="url(#paint24_linear_229_5)"/>
<defs>
<linearGradient id="paint0_linear_229_5" x1="466" y1="152" x2="466" y2="579" gradientUnits="userSpaceOnUse">
<stop stop-color="#BE3A85"/>
<stop offset="1" stop-color="#270C46"/>
</linearGradient>
<linearGradient id="paint1_linear_229_5" x1="492.269" y1="167.495" x2="492.269" y2="485.137" gradientUnits="userSpaceOnUse">
<stop stop-color="#CA2CA9"/>
<stop offset="1" stop-color="#FE9AFC"/>
</linearGradient>
<linearGradient id="paint2_linear_229_5" x1="492.269" y1="167.495" x2="492.269" y2="485.137" gradientUnits="userSpaceOnUse">
<stop stop-color="#CA2CA9"/>
<stop offset="1" stop-color="#FE9AFC"/>
</linearGradient>
<linearGradient id="paint3_linear_229_5" x1="492.269" y1="167.495" x2="492.269" y2="485.137" gradientUnits="userSpaceOnUse">
<stop stop-color="#CA2CA9"/>
<stop offset="1" stop-color="#FE9AFC"/>
</linearGradient>
<linearGradient id="paint4_linear_229_5" x1="492.269" y1="167.495" x2="492.269" y2="485.137" gradientUnits="userSpaceOnUse">
<stop stop-color="#CA2CA9"/>
<stop offset="1" stop-color="#FE9AFC"/>
</linearGradient>
<linearGradient id="paint5_linear_229_5" x1="1071" y1="17" x2="1071" y2="620" gradientUnits="userSpaceOnUse">
<stop stop-color="#BE3A85"/>
<stop offset="1" stop-color="#270C46"/>
</linearGradient>
<linearGradient id="paint6_linear_229_5" x1="1097.27" y1="38.8813" x2="1097.27" y2="487.449" gradientUnits="userSpaceOnUse">
<stop stop-color="#CA2CA9"/>
<stop offset="1" stop-color="#FE9AFC"/>
</linearGradient>
<linearGradient id="paint7_linear_229_5" x1="1097.27" y1="38.8813" x2="1097.27" y2="487.449" gradientUnits="userSpaceOnUse">
<stop stop-color="#CA2CA9"/>
<stop offset="1" stop-color="#FE9AFC"/>
</linearGradient>
<linearGradient id="paint8_linear_229_5" x1="1097.27" y1="38.8813" x2="1097.27" y2="487.449" gradientUnits="userSpaceOnUse">
<stop stop-color="#CA2CA9"/>
<stop offset="1" stop-color="#FE9AFC"/>
</linearGradient>
<linearGradient id="paint9_linear_229_5" x1="1097.27" y1="38.8813" x2="1097.27" y2="487.449" gradientUnits="userSpaceOnUse">
<stop stop-color="#CA2CA9"/>
<stop offset="1" stop-color="#FE9AFC"/>
</linearGradient>
<linearGradient id="paint10_linear_229_5" x1="1378" y1="0" x2="1378" y2="603" gradientUnits="userSpaceOnUse">
<stop stop-color="#BE3A85"/>
<stop offset="1" stop-color="#270C46"/>
</linearGradient>
<linearGradient id="paint11_linear_229_5" x1="1404.27" y1="21.8813" x2="1404.27" y2="470.449" gradientUnits="userSpaceOnUse">
<stop stop-color="#CA2CA9"/>
<stop offset="1" stop-color="#FE9AFC"/>
</linearGradient>
<linearGradient id="paint12_linear_229_5" x1="1404.27" y1="21.8813" x2="1404.27" y2="470.449" gradientUnits="userSpaceOnUse">
<stop stop-color="#CA2CA9"/>
<stop offset="1" stop-color="#FE9AFC"/>
</linearGradient>
<linearGradient id="paint13_linear_229_5" x1="1404.27" y1="21.8813" x2="1404.27" y2="470.449" gradientUnits="userSpaceOnUse">
<stop stop-color="#CA2CA9"/>
<stop offset="1" stop-color="#FE9AFC"/>
</linearGradient>
<linearGradient id="paint14_linear_229_5" x1="1404.27" y1="21.8813" x2="1404.27" y2="470.449" gradientUnits="userSpaceOnUse">
<stop stop-color="#CA2CA9"/>
<stop offset="1" stop-color="#FE9AFC"/>
</linearGradient>
<linearGradient id="paint15_linear_229_5" x1="761" y1="17" x2="761" y2="620" gradientUnits="userSpaceOnUse">
<stop stop-color="#BE3A85"/>
<stop offset="1" stop-color="#270C46"/>
</linearGradient>
<linearGradient id="paint16_linear_229_5" x1="734.731" y1="38.8813" x2="734.731" y2="487.449" gradientUnits="userSpaceOnUse">
<stop stop-color="#CA2CA9"/>
<stop offset="1" stop-color="#FE9AFC"/>
</linearGradient>
<linearGradient id="paint17_linear_229_5" x1="734.731" y1="38.8813" x2="734.731" y2="487.449" gradientUnits="userSpaceOnUse">
<stop stop-color="#CA2CA9"/>
<stop offset="1" stop-color="#FE9AFC"/>
</linearGradient>
<linearGradient id="paint18_linear_229_5" x1="734.731" y1="38.8813" x2="734.731" y2="487.449" gradientUnits="userSpaceOnUse">
<stop stop-color="#CA2CA9"/>
<stop offset="1" stop-color="#FE9AFC"/>
</linearGradient>
<linearGradient id="paint19_linear_229_5" x1="734.731" y1="38.8813" x2="734.731" y2="487.449" gradientUnits="userSpaceOnUse">
<stop stop-color="#CA2CA9"/>
<stop offset="1" stop-color="#FE9AFC"/>
</linearGradient>
<linearGradient id="paint20_linear_229_5" x1="148" y1="152" x2="148" y2="579" gradientUnits="userSpaceOnUse">
<stop stop-color="#BE3A85"/>
<stop offset="1" stop-color="#270C46"/>
</linearGradient>
<linearGradient id="paint21_linear_229_5" x1="121.731" y1="167.495" x2="121.731" y2="485.137" gradientUnits="userSpaceOnUse">
<stop stop-color="#CA2CA9"/>
<stop offset="1" stop-color="#FE9AFC"/>
</linearGradient>
<linearGradient id="paint22_linear_229_5" x1="121.731" y1="167.495" x2="121.731" y2="485.137" gradientUnits="userSpaceOnUse">
<stop stop-color="#CA2CA9"/>
<stop offset="1" stop-color="#FE9AFC"/>
</linearGradient>
<linearGradient id="paint23_linear_229_5" x1="121.731" y1="167.495" x2="121.731" y2="485.137" gradientUnits="userSpaceOnUse">
<stop stop-color="#CA2CA9"/>
<stop offset="1" stop-color="#FE9AFC"/>
</linearGradient>
<linearGradient id="paint24_linear_229_5" x1="121.731" y1="167.495" x2="121.731" y2="485.137" gradientUnits="userSpaceOnUse">
<stop stop-color="#CA2CA9"/>
<stop offset="1" stop-color="#FE9AFC"/>
</linearGradient>
</defs>
</svg>
