<svg width="448" height="475" viewBox="0 0 448 475" fill="none" xmlns="http://www.w3.org/2000/svg">
<g filter="url(#filter0_d_56_218)">
<path d="M347.811 85.0649C354.201 86.293 381.954 91.8308 386.591 97.2802C388.84 99.9205 389.76 103.513 390.08 106.607C390.57 111.359 390.273 116.145 390.066 120.677C389.44 134.507 388.065 148.273 383.912 160.211C370.708 141.532 357.845 120.128 344.994 101.04L344.279 99.8723L342.573 97.2961C342.339 96.843 340.875 94.6054 340.517 94.0402L333.784 83.3978C335.976 83.5605 338.435 83.8683 340.655 84.0942L342.813 84.4533L343.107 84.4311C344.443 84.6064 345.787 84.8191 347.135 85.0674L347.811 85.0649Z" fill="#882667"/>
<path d="M166.403 128.975C174.841 131.091 181.484 133.507 189.915 137.364L192.039 138.402L195.213 140.088L195.887 140.506C198.553 142.087 210.455 149.172 212.045 151.448C212.012 152.97 205.572 158.354 204.146 159.946C205.259 162.245 206.747 160.975 208.577 161.148L208.857 161.224C209.311 161.67 209.373 161.585 209.43 162.059C209.656 163.959 209.608 166.302 209.615 168.136L209.809 168.131L209.942 168.992L209.693 169.187L209.598 169.037C207.617 170.784 204.37 178.805 206.78 182.164C203.173 186.771 199.373 191.159 195.92 195.946C195.386 196.687 194.674 197.689 194.061 198.29C193.012 200.19 190.966 202.876 189.711 204.685C187.035 208.484 184.479 212.407 182.044 216.448C179.145 221.283 176.367 226.231 173.711 231.292C172.566 233.499 170.789 237.687 169.65 239.483C164.968 233.25 161.295 228.978 155.518 232.38C154.045 233.732 153.567 234.54 152.606 236.476C151.909 237.41 151.78 238.915 151.612 240.264C151.561 237.942 151.663 237.224 150.559 234.843C149.345 233.41 146.553 232.948 145.832 234.012C145.279 234.022 145.432 234.159 145.082 233.86C144.502 234.054 142.874 234.753 142.463 234.829L142.597 228.783L142.636 228.495C142.618 222.278 143.076 209.366 143.375 202.591C143.49 202.494 143.606 202.397 143.721 202.3L141.511 200.798C137.092 198.124 132.34 195.42 127.721 193.718C111.395 187.7 97.0674 188.319 83.4249 193.421C81.0564 194.309 77.2516 196.925 74.6114 196.815C73.7074 196.532 72.382 195.63 71.741 194.694C69.8469 191.931 70.614 189.989 71.7101 188.164C73.0581 185.923 74.4743 183.936 75.8993 181.849C86.9979 165.598 99.2335 151.486 114.587 140.502L119.385 137.39L120.339 136.83C127.635 132.74 132.836 130.8 141.106 128.927L143.16 128.552C143.952 128.454 144.74 128.344 145.523 128.221C148.926 127.893 152.39 127.764 155.903 127.832C159.358 127.973 162.863 128.355 166.403 128.975Z" fill="url(#paint0_linear_56_218)"/>
<path d="M154.291 196.351C155.012 195.288 157.803 195.75 159.018 197.182C160.122 199.564 160.019 200.281 160.071 202.603C160.239 201.254 160.368 199.75 161.064 198.815C161.08 206.532 164.021 208.539 168.218 215.697C172.257 221.851 176.127 228.074 180.12 234.24L184.173 240.487L187.993 246.429C190.542 250.377 194.303 255.911 196.622 259.803L201.796 267.74L204.461 271.891C203.891 272.092 202.927 273.422 202.65 274.026C201.701 276.098 196.442 278.848 196.039 280.686L216.636 312.701C216.52 316.152 216.443 319.519 215.894 322.797C213.626 336.33 206.516 346.674 197.088 353.256C189.517 358.544 180.456 360.877 170.833 361.648C167.785 361.893 164.687 361.721 161.542 361.571C168.726 355.609 175.79 349.897 178.196 338.789C178.962 335.258 179.019 331.833 179.476 328.231C174.563 331.155 169.472 334.307 164.449 337.003C158.952 339.954 152.556 342.244 146.554 344.167C146.276 344.249 145.065 344.585 144.884 344.693C133.198 347.738 121.849 349.985 109.152 350.22C107.46 350.251 102.599 350.334 101.029 349.992L100.345 350.019C97.7927 349.861 95.2317 349.66 92.6626 349.42L89.7095 349.088L86.8567 348.742C79.5288 347.788 74.7667 346.243 67.3105 343.778C65.7181 343.209 63.8022 342.47 62.2494 342.095C59.6816 341.057 58.1362 340.266 55.656 338.726L54.1863 337.904C52.5718 336.976 51.5741 336.334 49.9995 335.242C51.6591 334.823 53.3626 334.569 55.0735 334.29L55.933 334.164C74.3609 331.883 90.5856 318.952 100.006 302.756L100.58 301.878C108.875 288.737 114.204 273.521 122.12 259.926C121.81 258.47 121.673 258.095 121.784 256.74L121.783 253.986C121.825 251.992 121.88 250.001 121.947 248.014C118.784 247.674 112.6 247.291 110.063 248.533C103.51 250.011 99.5439 253.651 94.2943 257.323C96.9968 241.296 106.637 229.132 118.192 222.023C123.475 218.992 129.027 217.716 135.313 217.1L135.205 216.525C136.586 214.1 136.772 212.526 138.53 210.157C140.935 206.998 145.723 200.35 148.823 198.635L148.883 198.398C149.321 198.084 150.373 197.607 150.895 197.345L150.921 197.168C151.333 197.092 152.961 196.394 153.541 196.199C153.891 196.498 153.738 196.362 154.291 196.351Z" fill="url(#paint1_linear_56_218)"/>
<path d="M322.562 81.6333C326.426 87.1649 330.201 92.7662 333.886 98.4326C334.658 99.6056 339.745 107.438 340.388 108.092C341.873 110.678 344.262 114.169 345.976 116.69L360.77 139.362L361.685 140.767C368.787 151.644 376.573 163.235 383.46 174.167C377.285 197.085 367.54 217.496 354.599 234.614C352.267 237.691 349.847 240.67 347.341 243.548C345.695 245.418 343.464 247.697 341.971 249.636C340.84 250.714 339.728 251.756 338.657 252.908C333.578 257.728 327.445 263.397 321.738 267.322C316.571 271.106 311.214 274.596 305.678 277.787C303.528 279.024 298.371 281.422 296.686 282.646L293.985 283.941C293.773 284.049 292.426 284.7 292.314 284.799C292.666 286.685 292.393 295.699 292.341 297.964L292.04 298.768C292.396 300.501 292.453 301.325 292.59 303.015L290.677 303.972C282.1 308.101 271.851 312.358 262.401 314.758C258.732 316.107 253.068 317.229 249.098 318.155C244.818 319.039 240.297 320.058 235.942 320.684C233.363 321.268 230.716 321.743 228.118 322.289C227.61 322.397 225.455 322.98 225.145 322.996L224.887 322.344C224.018 321.882 222.167 322.428 221.316 322.558C217.76 323.103 213.923 321.287 210.202 319.405C209.253 322.369 207.816 324.313 204.631 324.176L203.71 324.059C198.296 323.01 197.378 320.005 193.815 314.874C192.34 312.751 190.92 310.517 189.492 308.356L168.816 276.77L166.15 272.618L160.977 264.682C158.658 260.79 154.896 255.256 152.348 251.307L148.528 245.365L144.475 239.118C140.482 232.952 136.612 226.729 132.573 220.576C128.376 213.417 125.434 211.41 125.419 203.694C126.381 201.757 126.859 200.95 128.332 199.597C134.108 196.195 137.781 200.468 142.464 206.701C143.603 204.904 145.38 200.717 146.525 198.51C149.181 193.449 151.959 188.5 154.857 183.666C157.292 179.625 159.849 175.702 162.524 171.903C163.78 170.094 165.826 167.408 166.874 165.508C167.488 164.906 168.2 163.905 168.734 163.163C172.186 158.376 175.986 153.989 179.594 149.382C177.183 146.023 180.43 138.002 182.412 136.255L182.506 136.405L182.756 136.21L182.623 135.349C183.424 133.808 185.522 134.04 187.164 134.998C187.911 136.332 188.66 137.499 189.022 138.907L191.991 135.829C197.377 130.297 202.991 125.057 208.826 120.12C209.602 119.555 210.612 118.644 211.373 118.011C231.748 101.756 253.14 89.7653 279.428 84.3835C285.498 83.1397 292.013 82.0467 298.388 81.7171L299.916 81.6244C305.925 81.3914 316.58 80.8788 322.562 81.6333Z" fill="url(#paint2_linear_56_218)"/>
<path d="M287.076 302.707C288.783 301.945 291.123 300.779 292.864 300.211C293.903 302.707 294.311 304.119 294.963 306.693C297.808 319.435 299.012 327.281 298.804 339.459C298.547 354.618 295.83 367.313 288.985 378.292C287.627 380.515 285.939 382.787 284.431 384.932C284.05 385.369 282.6 386.971 282.355 387.383C272.907 397.726 261.543 405.596 248.706 410.685C245.19 412.099 241.637 413.44 238.048 414.701C237.726 414.813 233.659 416.199 233.604 416.234C232.403 416.531 230.661 416.889 229.549 417.281C228.475 417.342 225.437 418.173 224.242 418.407C219.899 419.265 215.819 420.308 211.257 420.561C209.552 418.986 206.994 415.931 208.224 413.799C209.756 411.435 211.812 409.36 213.645 407.33C225.095 394.649 233.128 376.622 229.181 353.942C227.98 347.056 225.1 339.084 222.137 332.291C221.147 330.016 218.637 325.539 218.215 323.449C218.525 323.432 220.681 322.85 221.189 322.742C223.787 322.195 226.434 321.72 229.012 321.137C233.368 320.511 237.889 319.491 242.169 318.607C246.139 317.681 251.803 316.559 255.472 315.21C264.922 312.81 275.171 308.553 283.747 304.424L285.66 303.468L287.076 302.707Z" fill="url(#paint3_linear_56_218)"/>
<g filter="url(#filter1_i_56_218)">
<ellipse cx="272.245" cy="186.941" rx="48.2608" ry="36.4488" transform="rotate(12.8238 272.245 186.941)" fill="#F8D5F8"/>
</g>
</g>
<defs>
<filter id="filter0_d_56_218" x="0" y="35.2369" width="440.346" height="439.324" filterUnits="userSpaceOnUse" color-interpolation-filters="sRGB">
<feFlood flood-opacity="0" result="BackgroundImageFix"/>
<feColorMatrix in="SourceAlpha" type="matrix" values="0 0 0 0 0 0 0 0 0 0 0 0 0 0 0 0 0 0 127 0" result="hardAlpha"/>
<feOffset dy="4"/>
<feGaussianBlur stdDeviation="25"/>
<feComposite in2="hardAlpha" operator="out"/>
<feColorMatrix type="matrix" values="0 0 0 0 0.971311 0 0 0 0 0.836714 0 0 0 0 0.973592 0 0 0 1 0"/>
<feBlend mode="normal" in2="BackgroundImageFix" result="effect1_dropShadow_56_218"/>
<feBlend mode="normal" in="SourceGraphic" in2="effect1_dropShadow_56_218" result="shape"/>
</filter>
<filter id="filter1_i_56_218" x="224.49" y="149.812" width="95.5098" height="78.2571" filterUnits="userSpaceOnUse" color-interpolation-filters="sRGB">
<feFlood flood-opacity="0" result="BackgroundImageFix"/>
<feBlend mode="normal" in="SourceGraphic" in2="BackgroundImageFix" result="shape"/>
<feColorMatrix in="SourceAlpha" type="matrix" values="0 0 0 0 0 0 0 0 0 0 0 0 0 0 0 0 0 0 127 0" result="hardAlpha"/>
<feOffset dy="4"/>
<feGaussianBlur stdDeviation="2"/>
<feComposite in2="hardAlpha" operator="arithmetic" k2="-1" k3="1"/>
<feColorMatrix type="matrix" values="0 0 0 0 0 0 0 0 0 0 0 0 0 0 0 0 0 0 0.25 0"/>
<feBlend mode="normal" in2="shape" result="effect1_innerShadow_56_218"/>
</filter>
<linearGradient id="paint0_linear_56_218" x1="142.729" y1="119.108" x2="103.776" y2="222.186" gradientUnits="userSpaceOnUse">
<stop stop-color="#270C46"/>
<stop offset="0.0001" stop-color="#2E0E52"/>
<stop offset="1" stop-color="#611DAC"/>
</linearGradient>
<linearGradient id="paint1_linear_56_218" x1="136.978" y1="188.371" x2="76.8077" y2="347.597" gradientUnits="userSpaceOnUse">
<stop stop-color="#FFA721"/>
<stop offset="1" stop-color="#996414"/>
</linearGradient>
<linearGradient id="paint2_linear_56_218" x1="257.995" y1="57.2335" x2="162.909" y2="308.852" gradientUnits="userSpaceOnUse">
<stop stop-color="#641654"/>
<stop offset="1" stop-color="#CA2CA9"/>
</linearGradient>
<linearGradient id="paint3_linear_56_218" x1="255.813" y1="286.21" x2="205.819" y2="418.505" gradientUnits="userSpaceOnUse">
<stop stop-color="#17042C"/>
<stop offset="1" stop-color="#4C0C92"/>
</linearGradient>
</defs>
</svg>
