<svg width="44" height="47" viewBox="0 0 44 47" fill="none" xmlns="http://www.w3.org/2000/svg">
<path d="M22.9935 0.00702836C25.7101 0.0226222 28.4272 0.0202939 31.1437 0C31.6729 1.02164 32.2683 2.00831 32.9265 2.95378C34.8577 5.67887 37.3649 7.96409 40.6169 9.03084C41.5738 9.34474 42.69 9.51495 43.6888 9.68974C43.1996 12.1652 42.5459 15.0469 42.1439 17.5004C37.4881 16.6448 34.6705 15.769 31.1775 12.4173C31.2136 13.7387 31.1838 15.1881 31.1838 16.5171V24.2424L31.1851 29.0362C31.1851 30.1857 31.2144 31.3467 31.0997 32.4897C30.9801 33.6616 30.7231 34.8151 30.3331 35.9278C28.9719 39.8209 26.0912 43.0153 22.3325 44.7982C18.604 46.5623 14.3202 46.7973 10.4168 45.4519C6.33758 44.0365 3.26591 41.1818 1.4074 37.3549C0.325876 35.0383 -0.0631793 32.8419 0.00819268 30.3114C0.1444 26.2526 1.91318 22.4149 4.92272 19.6483C7.4235 17.3342 10.6276 15.9003 14.0378 15.5691C15.2295 15.4499 17.2692 15.4708 18.4882 15.5067C18.4063 18.0988 18.4919 20.9632 18.4695 23.5873C15.4011 23.6172 12.9412 23.2424 10.4408 25.6271C9.01369 26.9844 8.19956 28.8521 8.18187 30.809C8.14149 32.7501 8.89661 34.6253 10.2758 36.0081C11.6532 37.4173 13.5512 38.2124 15.5339 38.211C17.5015 38.2383 19.3967 37.4788 20.789 36.1057C21.8754 35.0514 22.6014 33.6884 22.8657 32.2068C23.0547 31.1591 22.9967 29.4346 22.9965 28.3048L22.994 22.3643L22.9935 0.00702836Z" fill="#6A2062"/>
</svg>
